<mxfile host="app.diagrams.net" modified="2023-12-03T17:50:49.297Z" agent="Mozilla/5.0 (Macintosh; Intel Mac OS X 10_15_7) AppleWebKit/605.1.15 (KHTML, like Gecko) Version/16.1 Safari/605.1.15" etag="nGRPUYg1ifz0O-UlhEqo" version="22.1.5" type="device" pages="4">
  <diagram id="LsLBHgB4QifKbQu3coEM" name="Login Process">
    <mxGraphModel dx="987" dy="621" grid="1" gridSize="10" guides="1" tooltips="1" connect="1" arrows="1" fold="1" page="1" pageScale="1" pageWidth="827" pageHeight="1169" math="0" shadow="0">
      <root>
        <mxCell id="0" />
        <mxCell id="1" parent="0" />
        <mxCell id="YcKL8zRkz6X41tqdqp-x-1" value="POS System" style="shape=umlLifeline;perimeter=lifelinePerimeter;whiteSpace=wrap;html=1;container=0;dropTarget=0;collapsible=0;recursiveResize=0;outlineConnect=0;portConstraint=eastwest;newEdgeStyle={&quot;edgeStyle&quot;:&quot;elbowEdgeStyle&quot;,&quot;elbow&quot;:&quot;vertical&quot;,&quot;curved&quot;:0,&quot;rounded&quot;:0};" parent="1" vertex="1">
          <mxGeometry x="375" y="130" width="100" height="430" as="geometry" />
        </mxCell>
        <mxCell id="YcKL8zRkz6X41tqdqp-x-2" value="" style="html=1;points=[];perimeter=orthogonalPerimeter;outlineConnect=0;targetShapes=umlLifeline;portConstraint=eastwest;newEdgeStyle={&quot;edgeStyle&quot;:&quot;elbowEdgeStyle&quot;,&quot;elbow&quot;:&quot;vertical&quot;,&quot;curved&quot;:0,&quot;rounded&quot;:0};" parent="YcKL8zRkz6X41tqdqp-x-1" vertex="1">
          <mxGeometry x="45" y="70" width="10" height="330" as="geometry" />
        </mxCell>
        <mxCell id="YcKL8zRkz6X41tqdqp-x-11" value="Database" style="shape=umlLifeline;perimeter=lifelinePerimeter;whiteSpace=wrap;html=1;container=0;dropTarget=0;collapsible=0;recursiveResize=0;outlineConnect=0;portConstraint=eastwest;newEdgeStyle={&quot;edgeStyle&quot;:&quot;elbowEdgeStyle&quot;,&quot;elbow&quot;:&quot;vertical&quot;,&quot;curved&quot;:0,&quot;rounded&quot;:0};" parent="1" vertex="1">
          <mxGeometry x="595" y="130" width="100" height="430" as="geometry" />
        </mxCell>
        <mxCell id="YcKL8zRkz6X41tqdqp-x-12" value="" style="html=1;points=[];perimeter=orthogonalPerimeter;outlineConnect=0;targetShapes=umlLifeline;portConstraint=eastwest;newEdgeStyle={&quot;edgeStyle&quot;:&quot;elbowEdgeStyle&quot;,&quot;elbow&quot;:&quot;vertical&quot;,&quot;curved&quot;:0,&quot;rounded&quot;:0};" parent="YcKL8zRkz6X41tqdqp-x-11" vertex="1">
          <mxGeometry x="45" y="118" width="10" height="40" as="geometry" />
        </mxCell>
        <mxCell id="YcKL8zRkz6X41tqdqp-x-16" value="Verify" style="html=1;verticalAlign=bottom;endArrow=block;edgeStyle=elbowEdgeStyle;elbow=horizontal;curved=0;rounded=0;" parent="1" target="YcKL8zRkz6X41tqdqp-x-12" edge="1">
          <mxGeometry relative="1" as="geometry">
            <mxPoint x="430.0000000000002" y="248.5" as="sourcePoint" />
            <Array as="points">
              <mxPoint x="516" y="248.5" />
            </Array>
            <mxPoint x="641" y="248.5" as="targetPoint" />
            <mxPoint as="offset" />
          </mxGeometry>
        </mxCell>
        <mxCell id="YcKL8zRkz6X41tqdqp-x-17" value="Response Message" style="html=1;verticalAlign=bottom;endArrow=open;dashed=1;endSize=8;edgeStyle=elbowEdgeStyle;elbow=vertical;curved=0;rounded=0;" parent="1" edge="1">
          <mxGeometry x="-0.0016" relative="1" as="geometry">
            <mxPoint x="435" y="287.44" as="targetPoint" />
            <Array as="points">
              <mxPoint x="530" y="287.44" />
            </Array>
            <mxPoint x="645" y="287.44" as="sourcePoint" />
            <mxPoint as="offset" />
          </mxGeometry>
        </mxCell>
        <mxCell id="YcKL8zRkz6X41tqdqp-x-18" value="" style="shape=umlLifeline;perimeter=lifelinePerimeter;whiteSpace=wrap;html=1;container=1;dropTarget=0;collapsible=0;recursiveResize=0;outlineConnect=0;portConstraint=eastwest;newEdgeStyle={&quot;curved&quot;:0,&quot;rounded&quot;:0};participant=umlActor;" parent="1" vertex="1">
          <mxGeometry x="156" y="120" width="20" height="440" as="geometry" />
        </mxCell>
        <mxCell id="YcKL8zRkz6X41tqdqp-x-19" value="" style="html=1;points=[[0,0,0,0,5],[0,1,0,0,-5],[1,0,0,0,5],[1,1,0,0,-5]];perimeter=orthogonalPerimeter;outlineConnect=0;targetShapes=umlLifeline;portConstraint=eastwest;newEdgeStyle={&quot;curved&quot;:0,&quot;rounded&quot;:0};" parent="YcKL8zRkz6X41tqdqp-x-18" vertex="1">
          <mxGeometry x="4" y="80" width="10" height="330" as="geometry" />
        </mxCell>
        <mxCell id="YcKL8zRkz6X41tqdqp-x-21" value="Login" style="html=1;verticalAlign=bottom;startArrow=none;endArrow=block;startSize=8;edgeStyle=elbowEdgeStyle;elbow=vertical;curved=0;rounded=0;startFill=0;" parent="1" source="YcKL8zRkz6X41tqdqp-x-19" edge="1">
          <mxGeometry relative="1" as="geometry">
            <mxPoint x="205" y="208" as="sourcePoint" />
            <mxPoint x="420" y="208.1034482758621" as="targetPoint" />
            <mxPoint as="offset" />
          </mxGeometry>
        </mxCell>
        <mxCell id="TTJ3JJoanu6z2-oZrmYh-1" value="alt &amp;nbsp;" style="shape=umlFrame;whiteSpace=wrap;html=1;pointerEvents=0;" parent="1" vertex="1">
          <mxGeometry x="120" y="320" width="340" height="180" as="geometry" />
        </mxCell>
        <mxCell id="YcKL8zRkz6X41tqdqp-x-6" value="Error Message" style="html=1;verticalAlign=bottom;endArrow=open;dashed=1;endSize=8;edgeStyle=elbowEdgeStyle;elbow=horizontal;curved=0;rounded=0;" parent="1" edge="1">
          <mxGeometry relative="1" as="geometry">
            <mxPoint x="170" y="480" as="targetPoint" />
            <Array as="points">
              <mxPoint x="304" y="480" />
            </Array>
            <mxPoint x="420" y="480" as="sourcePoint" />
            <mxPoint as="offset" />
          </mxGeometry>
        </mxCell>
        <mxCell id="TTJ3JJoanu6z2-oZrmYh-2" value="Success Message &lt;br&gt;with logged in user info" style="html=1;verticalAlign=bottom;endArrow=open;dashed=1;endSize=8;edgeStyle=elbowEdgeStyle;elbow=horizontal;curved=0;rounded=0;" parent="1" edge="1">
          <mxGeometry x="-0.04" y="8" relative="1" as="geometry">
            <mxPoint x="170" y="382.5" as="targetPoint" />
            <Array as="points">
              <mxPoint x="303" y="382.5" />
            </Array>
            <mxPoint x="420" y="382.5" as="sourcePoint" />
            <mxPoint as="offset" />
          </mxGeometry>
        </mxCell>
        <mxCell id="TTJ3JJoanu6z2-oZrmYh-4" value="" style="line;strokeWidth=1;fillColor=none;align=left;verticalAlign=middle;spacingTop=-1;spacingLeft=3;spacingRight=3;rotatable=0;labelPosition=right;points=[];portConstraint=eastwest;strokeColor=inherit;" parent="1" vertex="1">
          <mxGeometry x="170" y="410" width="250" height="8" as="geometry" />
        </mxCell>
        <mxCell id="TTJ3JJoanu6z2-oZrmYh-5" value="[If verified success]" style="text;html=1;strokeColor=none;fillColor=none;align=left;verticalAlign=middle;whiteSpace=wrap;rounded=0;" parent="1" vertex="1">
          <mxGeometry x="190" y="320" width="124" height="30" as="geometry" />
        </mxCell>
        <mxCell id="TTJ3JJoanu6z2-oZrmYh-6" value="[Else]" style="text;html=1;strokeColor=none;fillColor=none;align=left;verticalAlign=middle;whiteSpace=wrap;rounded=0;" parent="1" vertex="1">
          <mxGeometry x="190" y="418" width="124" height="30" as="geometry" />
        </mxCell>
      </root>
    </mxGraphModel>
  </diagram>
  <diagram name="Sale Process" id="2YBvvXClWsGukQMizWep">
    <mxGraphModel grid="1" page="1" gridSize="10" guides="1" tooltips="1" connect="1" arrows="1" fold="1" pageScale="1" pageWidth="850" pageHeight="1100" math="0" shadow="0">
      <root>
        <mxCell id="0" />
        <mxCell id="1" parent="0" />
        <mxCell id="aM9ryv3xv72pqoxQDRHE-1" value="POS System" style="shape=umlLifeline;perimeter=lifelinePerimeter;whiteSpace=wrap;html=1;container=0;dropTarget=0;collapsible=0;recursiveResize=0;outlineConnect=0;portConstraint=eastwest;newEdgeStyle={&quot;edgeStyle&quot;:&quot;elbowEdgeStyle&quot;,&quot;elbow&quot;:&quot;vertical&quot;,&quot;curved&quot;:0,&quot;rounded&quot;:0};" parent="1" vertex="1">
          <mxGeometry x="375" y="130" width="100" height="690" as="geometry" />
        </mxCell>
        <mxCell id="aM9ryv3xv72pqoxQDRHE-2" value="" style="html=1;points=[];perimeter=orthogonalPerimeter;outlineConnect=0;targetShapes=umlLifeline;portConstraint=eastwest;newEdgeStyle={&quot;edgeStyle&quot;:&quot;elbowEdgeStyle&quot;,&quot;elbow&quot;:&quot;vertical&quot;,&quot;curved&quot;:0,&quot;rounded&quot;:0};" parent="aM9ryv3xv72pqoxQDRHE-1" vertex="1">
          <mxGeometry x="45" y="70" width="10" height="590" as="geometry" />
        </mxCell>
        <mxCell id="zI0fxH4itYcxDyCW25Ll-23" value="" style="html=1;points=[[0,0,0,0,5],[0,1,0,0,-5],[1,0,0,0,5],[1,1,0,0,-5]];perimeter=orthogonalPerimeter;outlineConnect=0;targetShapes=umlLifeline;portConstraint=eastwest;newEdgeStyle={&quot;curved&quot;:0,&quot;rounded&quot;:0};" parent="aM9ryv3xv72pqoxQDRHE-1" vertex="1">
          <mxGeometry x="50" y="460" width="10" height="40" as="geometry" />
        </mxCell>
        <mxCell id="zI0fxH4itYcxDyCW25Ll-24" value="Calculate Total values" style="html=1;align=left;spacingLeft=2;endArrow=block;rounded=0;edgeStyle=orthogonalEdgeStyle;curved=0;rounded=0;" parent="aM9ryv3xv72pqoxQDRHE-1" target="zI0fxH4itYcxDyCW25Ll-23" edge="1">
          <mxGeometry x="0.0061" relative="1" as="geometry">
            <mxPoint x="55" y="440" as="sourcePoint" />
            <Array as="points">
              <mxPoint x="85" y="470" />
            </Array>
            <mxPoint as="offset" />
          </mxGeometry>
        </mxCell>
        <mxCell id="zI0fxH4itYcxDyCW25Ll-16" value="" style="html=1;points=[[0,0,0,0,5],[0,1,0,0,-5],[1,0,0,0,5],[1,1,0,0,-5]];perimeter=orthogonalPerimeter;outlineConnect=0;targetShapes=umlLifeline;portConstraint=eastwest;newEdgeStyle={&quot;curved&quot;:0,&quot;rounded&quot;:0};" parent="aM9ryv3xv72pqoxQDRHE-1" vertex="1">
          <mxGeometry x="51" y="282" width="10" height="40" as="geometry" />
        </mxCell>
        <mxCell id="zI0fxH4itYcxDyCW25Ll-11" value="Add Item" style="html=1;verticalAlign=bottom;endArrow=open;dashed=1;endSize=8;edgeStyle=elbowEdgeStyle;elbow=horizontal;curved=0;rounded=0;" parent="aM9ryv3xv72pqoxQDRHE-1" edge="1">
          <mxGeometry x="0.0015" relative="1" as="geometry">
            <mxPoint x="-174" y="240" as="targetPoint" />
            <Array as="points">
              <mxPoint x="-70" y="240" />
            </Array>
            <mxPoint x="46" y="240" as="sourcePoint" />
            <mxPoint as="offset" />
          </mxGeometry>
        </mxCell>
        <mxCell id="zI0fxH4itYcxDyCW25Ll-19" value="Choose Payment Type" style="html=1;verticalAlign=bottom;startArrow=none;endArrow=block;startSize=8;edgeStyle=elbowEdgeStyle;elbow=vertical;curved=0;rounded=0;startFill=0;" parent="aM9ryv3xv72pqoxQDRHE-1" edge="1">
          <mxGeometry x="0.0455" relative="1" as="geometry">
            <mxPoint x="-174" y="372" as="sourcePoint" />
            <mxPoint x="46" y="372" as="targetPoint" />
            <mxPoint as="offset" />
            <Array as="points">
              <mxPoint x="41" y="372" />
            </Array>
          </mxGeometry>
        </mxCell>
        <mxCell id="zI0fxH4itYcxDyCW25Ll-20" value="Add Discount" style="html=1;verticalAlign=bottom;startArrow=none;endArrow=block;startSize=8;edgeStyle=elbowEdgeStyle;elbow=vertical;curved=0;rounded=0;startFill=0;" parent="aM9ryv3xv72pqoxQDRHE-1" edge="1">
          <mxGeometry x="0.0455" relative="1" as="geometry">
            <mxPoint x="-174" y="412.00000000000006" as="sourcePoint" />
            <mxPoint x="46" y="412.00000000000006" as="targetPoint" />
            <mxPoint as="offset" />
            <Array as="points">
              <mxPoint x="41" y="412.00000000000006" />
            </Array>
          </mxGeometry>
        </mxCell>
        <mxCell id="zI0fxH4itYcxDyCW25Ll-25" value="Submit Sale" style="html=1;verticalAlign=bottom;startArrow=none;endArrow=block;startSize=8;edgeStyle=elbowEdgeStyle;elbow=vertical;curved=0;rounded=0;startFill=0;" parent="aM9ryv3xv72pqoxQDRHE-1" edge="1">
          <mxGeometry x="0.0455" relative="1" as="geometry">
            <mxPoint x="-174" y="532" as="sourcePoint" />
            <mxPoint x="46" y="532" as="targetPoint" />
            <mxPoint as="offset" />
            <Array as="points">
              <mxPoint x="41" y="532" />
            </Array>
          </mxGeometry>
        </mxCell>
        <mxCell id="zI0fxH4itYcxDyCW25Ll-29" value="Response Message" style="html=1;verticalAlign=bottom;endArrow=open;dashed=1;endSize=8;edgeStyle=elbowEdgeStyle;elbow=horizontal;curved=0;rounded=0;" parent="aM9ryv3xv72pqoxQDRHE-1" edge="1">
          <mxGeometry x="0.0015" relative="1" as="geometry">
            <mxPoint x="-174" y="649" as="targetPoint" />
            <Array as="points">
              <mxPoint x="-70" y="649" />
            </Array>
            <mxPoint x="46" y="649" as="sourcePoint" />
            <mxPoint as="offset" />
          </mxGeometry>
        </mxCell>
        <mxCell id="aM9ryv3xv72pqoxQDRHE-5" value="Database" style="shape=umlLifeline;perimeter=lifelinePerimeter;whiteSpace=wrap;html=1;container=0;dropTarget=0;collapsible=0;recursiveResize=0;outlineConnect=0;portConstraint=eastwest;newEdgeStyle={&quot;edgeStyle&quot;:&quot;elbowEdgeStyle&quot;,&quot;elbow&quot;:&quot;vertical&quot;,&quot;curved&quot;:0,&quot;rounded&quot;:0};" parent="1" vertex="1">
          <mxGeometry x="595" y="130" width="100" height="690" as="geometry" />
        </mxCell>
        <mxCell id="aM9ryv3xv72pqoxQDRHE-6" value="" style="html=1;points=[];perimeter=orthogonalPerimeter;outlineConnect=0;targetShapes=umlLifeline;portConstraint=eastwest;newEdgeStyle={&quot;edgeStyle&quot;:&quot;elbowEdgeStyle&quot;,&quot;elbow&quot;:&quot;vertical&quot;,&quot;curved&quot;:0,&quot;rounded&quot;:0};" parent="aM9ryv3xv72pqoxQDRHE-5" vertex="1">
          <mxGeometry x="45" y="170" width="10" height="40" as="geometry" />
        </mxCell>
        <mxCell id="zI0fxH4itYcxDyCW25Ll-26" value="" style="html=1;points=[];perimeter=orthogonalPerimeter;outlineConnect=0;targetShapes=umlLifeline;portConstraint=eastwest;newEdgeStyle={&quot;edgeStyle&quot;:&quot;elbowEdgeStyle&quot;,&quot;elbow&quot;:&quot;vertical&quot;,&quot;curved&quot;:0,&quot;rounded&quot;:0};" parent="aM9ryv3xv72pqoxQDRHE-5" vertex="1">
          <mxGeometry x="45" y="568" width="10" height="42" as="geometry" />
        </mxCell>
        <mxCell id="zI0fxH4itYcxDyCW25Ll-27" value="Save Sale" style="html=1;verticalAlign=bottom;endArrow=block;edgeStyle=elbowEdgeStyle;elbow=horizontal;curved=0;rounded=0;" parent="aM9ryv3xv72pqoxQDRHE-5" target="zI0fxH4itYcxDyCW25Ll-26" edge="1">
          <mxGeometry relative="1" as="geometry">
            <mxPoint x="-165" y="569" as="sourcePoint" />
            <Array as="points">
              <mxPoint x="-79" y="568.5" />
            </Array>
            <mxPoint x="46" y="568.5" as="targetPoint" />
            <mxPoint as="offset" />
          </mxGeometry>
        </mxCell>
        <mxCell id="zI0fxH4itYcxDyCW25Ll-28" value="Response Message" style="html=1;verticalAlign=bottom;endArrow=open;dashed=1;endSize=8;edgeStyle=elbowEdgeStyle;elbow=vertical;curved=0;rounded=0;" parent="aM9ryv3xv72pqoxQDRHE-5" edge="1">
          <mxGeometry x="-0.0023" relative="1" as="geometry">
            <mxPoint x="-165" y="609" as="targetPoint" />
            <Array as="points">
              <mxPoint x="-70" y="609" />
            </Array>
            <mxPoint x="45" y="609.0000000000002" as="sourcePoint" />
            <mxPoint as="offset" />
          </mxGeometry>
        </mxCell>
        <mxCell id="aM9ryv3xv72pqoxQDRHE-7" value="Get Item Info" style="html=1;verticalAlign=bottom;endArrow=block;edgeStyle=elbowEdgeStyle;elbow=horizontal;curved=0;rounded=0;" parent="1" source="aM9ryv3xv72pqoxQDRHE-2" target="aM9ryv3xv72pqoxQDRHE-6" edge="1">
          <mxGeometry relative="1" as="geometry">
            <mxPoint x="435" y="301" as="sourcePoint" />
            <Array as="points">
              <mxPoint x="516" y="300.5" />
            </Array>
            <mxPoint x="641" y="300.5" as="targetPoint" />
            <mxPoint as="offset" />
          </mxGeometry>
        </mxCell>
        <mxCell id="aM9ryv3xv72pqoxQDRHE-8" value="Item Info" style="html=1;verticalAlign=bottom;endArrow=open;dashed=1;endSize=8;edgeStyle=elbowEdgeStyle;elbow=vertical;curved=0;rounded=0;" parent="1" edge="1">
          <mxGeometry relative="1" as="geometry">
            <mxPoint x="435" y="339.44" as="targetPoint" />
            <Array as="points">
              <mxPoint x="530" y="339.44" />
            </Array>
            <mxPoint x="645" y="339.44" as="sourcePoint" />
            <mxPoint as="offset" />
          </mxGeometry>
        </mxCell>
        <mxCell id="zI0fxH4itYcxDyCW25Ll-21" value="" style="shape=umlLifeline;perimeter=lifelinePerimeter;whiteSpace=wrap;html=1;container=1;dropTarget=0;collapsible=0;recursiveResize=0;outlineConnect=0;portConstraint=eastwest;newEdgeStyle={&quot;curved&quot;:0,&quot;rounded&quot;:0};participant=umlActor;" parent="1" vertex="1">
          <mxGeometry x="185" y="120" width="20" height="700" as="geometry" />
        </mxCell>
        <mxCell id="zI0fxH4itYcxDyCW25Ll-6" value="" style="html=1;points=[[0,0,0,0,5],[0,1,0,0,-5],[1,0,0,0,5],[1,1,0,0,-5]];perimeter=orthogonalPerimeter;outlineConnect=0;targetShapes=umlLifeline;portConstraint=eastwest;newEdgeStyle={&quot;curved&quot;:0,&quot;rounded&quot;:0};" parent="zI0fxH4itYcxDyCW25Ll-21" vertex="1">
          <mxGeometry x="5" y="80" width="10" height="590" as="geometry" />
        </mxCell>
        <mxCell id="zI0fxH4itYcxDyCW25Ll-8" value="loop" style="shape=umlFrame;whiteSpace=wrap;html=1;pointerEvents=0;" parent="1" vertex="1">
          <mxGeometry x="155" y="230" width="320" height="230" as="geometry" />
        </mxCell>
        <mxCell id="aM9ryv3xv72pqoxQDRHE-3" value="Make New Sale" style="html=1;verticalAlign=bottom;startArrow=none;endArrow=block;startSize=8;edgeStyle=elbowEdgeStyle;elbow=vertical;curved=0;rounded=0;startFill=0;" parent="1" source="zI0fxH4itYcxDyCW25Ll-6" edge="1">
          <mxGeometry relative="1" as="geometry">
            <mxPoint x="205" y="208" as="sourcePoint" />
            <mxPoint x="420" y="208.1034482758621" as="targetPoint" />
            <mxPoint as="offset" />
          </mxGeometry>
        </mxCell>
        <mxCell id="zI0fxH4itYcxDyCW25Ll-9" value="Enter Item" style="html=1;verticalAlign=bottom;startArrow=none;endArrow=block;startSize=8;edgeStyle=elbowEdgeStyle;elbow=vertical;curved=0;rounded=0;startFill=0;" parent="1" source="zI0fxH4itYcxDyCW25Ll-6" edge="1">
          <mxGeometry relative="1" as="geometry">
            <mxPoint x="195" y="269" as="sourcePoint" />
            <mxPoint x="420" y="269" as="targetPoint" />
            <mxPoint as="offset" />
            <Array as="points">
              <mxPoint x="415" y="269" />
            </Array>
          </mxGeometry>
        </mxCell>
        <mxCell id="zI0fxH4itYcxDyCW25Ll-31" value="Calculate Total values" style="html=1;align=left;spacingLeft=2;endArrow=block;rounded=0;edgeStyle=orthogonalEdgeStyle;curved=0;rounded=0;" parent="1" edge="1">
          <mxGeometry x="0.0061" relative="1" as="geometry">
            <mxPoint x="430" y="400.05999999999995" as="sourcePoint" />
            <Array as="points">
              <mxPoint x="460" y="430.05999999999995" />
            </Array>
            <mxPoint as="offset" />
            <mxPoint x="435" y="430.05999999999995" as="targetPoint" />
          </mxGeometry>
        </mxCell>
      </root>
    </mxGraphModel>
  </diagram>
  <diagram id="jbinFSaXGtyrPyYmu-PJ" name="Item Receive Process">
    <mxGraphModel grid="1" page="1" gridSize="10" guides="1" tooltips="1" connect="1" arrows="1" fold="1" pageScale="1" pageWidth="827" pageHeight="1169" math="0" shadow="0">
      <root>
        <mxCell id="0" />
        <mxCell id="1" parent="0" />
        <mxCell id="S-3L3nUKoJfVUGBxYp5F-1" value="POS System" style="shape=umlLifeline;perimeter=lifelinePerimeter;whiteSpace=wrap;html=1;container=0;dropTarget=0;collapsible=0;recursiveResize=0;outlineConnect=0;portConstraint=eastwest;newEdgeStyle={&quot;edgeStyle&quot;:&quot;elbowEdgeStyle&quot;,&quot;elbow&quot;:&quot;vertical&quot;,&quot;curved&quot;:0,&quot;rounded&quot;:0};" parent="1" vertex="1">
          <mxGeometry x="375" y="130" width="100" height="550" as="geometry" />
        </mxCell>
        <mxCell id="S-3L3nUKoJfVUGBxYp5F-2" value="" style="html=1;points=[];perimeter=orthogonalPerimeter;outlineConnect=0;targetShapes=umlLifeline;portConstraint=eastwest;newEdgeStyle={&quot;edgeStyle&quot;:&quot;elbowEdgeStyle&quot;,&quot;elbow&quot;:&quot;vertical&quot;,&quot;curved&quot;:0,&quot;rounded&quot;:0};" parent="S-3L3nUKoJfVUGBxYp5F-1" vertex="1">
          <mxGeometry x="45" y="70" width="10" height="450" as="geometry" />
        </mxCell>
        <mxCell id="S-3L3nUKoJfVUGBxYp5F-5" value="" style="html=1;points=[[0,0,0,0,5],[0,1,0,0,-5],[1,0,0,0,5],[1,1,0,0,-5]];perimeter=orthogonalPerimeter;outlineConnect=0;targetShapes=umlLifeline;portConstraint=eastwest;newEdgeStyle={&quot;curved&quot;:0,&quot;rounded&quot;:0};" parent="S-3L3nUKoJfVUGBxYp5F-1" vertex="1">
          <mxGeometry x="51" y="282" width="10" height="40" as="geometry" />
        </mxCell>
        <mxCell id="S-3L3nUKoJfVUGBxYp5F-6" value="Add Item" style="html=1;verticalAlign=bottom;endArrow=open;dashed=1;endSize=8;edgeStyle=elbowEdgeStyle;elbow=horizontal;curved=0;rounded=0;" parent="S-3L3nUKoJfVUGBxYp5F-1" edge="1">
          <mxGeometry x="0.0015" relative="1" as="geometry">
            <mxPoint x="-174" y="240" as="targetPoint" />
            <Array as="points">
              <mxPoint x="-70" y="240" />
            </Array>
            <mxPoint x="46" y="240" as="sourcePoint" />
            <mxPoint as="offset" />
          </mxGeometry>
        </mxCell>
        <mxCell id="S-3L3nUKoJfVUGBxYp5F-9" value="Submit Item Receive" style="html=1;verticalAlign=bottom;startArrow=none;endArrow=block;startSize=8;edgeStyle=elbowEdgeStyle;elbow=vertical;curved=0;rounded=0;startFill=0;" parent="S-3L3nUKoJfVUGBxYp5F-1" edge="1">
          <mxGeometry x="0.0455" relative="1" as="geometry">
            <mxPoint x="-174" y="377" as="sourcePoint" />
            <mxPoint x="46" y="377" as="targetPoint" />
            <mxPoint as="offset" />
            <Array as="points">
              <mxPoint x="41" y="377" />
            </Array>
          </mxGeometry>
        </mxCell>
        <mxCell id="S-3L3nUKoJfVUGBxYp5F-10" value="Response Message" style="html=1;verticalAlign=bottom;endArrow=open;dashed=1;endSize=8;edgeStyle=elbowEdgeStyle;elbow=horizontal;curved=0;rounded=0;" parent="S-3L3nUKoJfVUGBxYp5F-1" edge="1">
          <mxGeometry x="0.0015" relative="1" as="geometry">
            <mxPoint x="-174" y="494" as="targetPoint" />
            <Array as="points">
              <mxPoint x="-70" y="494" />
            </Array>
            <mxPoint x="46" y="494" as="sourcePoint" />
            <mxPoint as="offset" />
          </mxGeometry>
        </mxCell>
        <mxCell id="S-3L3nUKoJfVUGBxYp5F-11" value="Database" style="shape=umlLifeline;perimeter=lifelinePerimeter;whiteSpace=wrap;html=1;container=0;dropTarget=0;collapsible=0;recursiveResize=0;outlineConnect=0;portConstraint=eastwest;newEdgeStyle={&quot;edgeStyle&quot;:&quot;elbowEdgeStyle&quot;,&quot;elbow&quot;:&quot;vertical&quot;,&quot;curved&quot;:0,&quot;rounded&quot;:0};" parent="1" vertex="1">
          <mxGeometry x="595" y="130" width="100" height="550" as="geometry" />
        </mxCell>
        <mxCell id="S-3L3nUKoJfVUGBxYp5F-12" value="" style="html=1;points=[];perimeter=orthogonalPerimeter;outlineConnect=0;targetShapes=umlLifeline;portConstraint=eastwest;newEdgeStyle={&quot;edgeStyle&quot;:&quot;elbowEdgeStyle&quot;,&quot;elbow&quot;:&quot;vertical&quot;,&quot;curved&quot;:0,&quot;rounded&quot;:0};" parent="S-3L3nUKoJfVUGBxYp5F-11" vertex="1">
          <mxGeometry x="45" y="170" width="10" height="40" as="geometry" />
        </mxCell>
        <mxCell id="S-3L3nUKoJfVUGBxYp5F-13" value="" style="html=1;points=[];perimeter=orthogonalPerimeter;outlineConnect=0;targetShapes=umlLifeline;portConstraint=eastwest;newEdgeStyle={&quot;edgeStyle&quot;:&quot;elbowEdgeStyle&quot;,&quot;elbow&quot;:&quot;vertical&quot;,&quot;curved&quot;:0,&quot;rounded&quot;:0};" parent="S-3L3nUKoJfVUGBxYp5F-11" vertex="1">
          <mxGeometry x="45" y="413" width="10" height="42" as="geometry" />
        </mxCell>
        <mxCell id="S-3L3nUKoJfVUGBxYp5F-14" value="Save Item Receive" style="html=1;verticalAlign=bottom;endArrow=block;edgeStyle=elbowEdgeStyle;elbow=horizontal;curved=0;rounded=0;" parent="S-3L3nUKoJfVUGBxYp5F-11" target="S-3L3nUKoJfVUGBxYp5F-13" edge="1">
          <mxGeometry relative="1" as="geometry">
            <mxPoint x="-165" y="414" as="sourcePoint" />
            <Array as="points">
              <mxPoint x="-79" y="413.5" />
            </Array>
            <mxPoint x="46" y="413.5" as="targetPoint" />
            <mxPoint as="offset" />
          </mxGeometry>
        </mxCell>
        <mxCell id="S-3L3nUKoJfVUGBxYp5F-15" value="Response Message" style="html=1;verticalAlign=bottom;endArrow=open;dashed=1;endSize=8;edgeStyle=elbowEdgeStyle;elbow=vertical;curved=0;rounded=0;" parent="S-3L3nUKoJfVUGBxYp5F-11" edge="1">
          <mxGeometry x="-0.0023" relative="1" as="geometry">
            <mxPoint x="-165" y="454" as="targetPoint" />
            <Array as="points">
              <mxPoint x="-70" y="454" />
            </Array>
            <mxPoint x="45" y="454.0000000000002" as="sourcePoint" />
            <mxPoint as="offset" />
          </mxGeometry>
        </mxCell>
        <mxCell id="S-3L3nUKoJfVUGBxYp5F-16" value="Get Item Info" style="html=1;verticalAlign=bottom;endArrow=block;edgeStyle=elbowEdgeStyle;elbow=horizontal;curved=0;rounded=0;" parent="1" source="S-3L3nUKoJfVUGBxYp5F-2" target="S-3L3nUKoJfVUGBxYp5F-12" edge="1">
          <mxGeometry relative="1" as="geometry">
            <mxPoint x="435" y="301" as="sourcePoint" />
            <Array as="points">
              <mxPoint x="516" y="300.5" />
            </Array>
            <mxPoint x="641" y="300.5" as="targetPoint" />
            <mxPoint as="offset" />
          </mxGeometry>
        </mxCell>
        <mxCell id="S-3L3nUKoJfVUGBxYp5F-17" value="Item Info" style="html=1;verticalAlign=bottom;endArrow=open;dashed=1;endSize=8;edgeStyle=elbowEdgeStyle;elbow=vertical;curved=0;rounded=0;" parent="1" edge="1">
          <mxGeometry relative="1" as="geometry">
            <mxPoint x="435" y="339.44" as="targetPoint" />
            <Array as="points">
              <mxPoint x="530" y="339.44" />
            </Array>
            <mxPoint x="645" y="339.44" as="sourcePoint" />
            <mxPoint as="offset" />
          </mxGeometry>
        </mxCell>
        <mxCell id="S-3L3nUKoJfVUGBxYp5F-18" value="" style="shape=umlLifeline;perimeter=lifelinePerimeter;whiteSpace=wrap;html=1;container=1;dropTarget=0;collapsible=0;recursiveResize=0;outlineConnect=0;portConstraint=eastwest;newEdgeStyle={&quot;curved&quot;:0,&quot;rounded&quot;:0};participant=umlActor;" parent="1" vertex="1">
          <mxGeometry x="185" y="120" width="20" height="560" as="geometry" />
        </mxCell>
        <mxCell id="S-3L3nUKoJfVUGBxYp5F-19" value="" style="html=1;points=[[0,0,0,0,5],[0,1,0,0,-5],[1,0,0,0,5],[1,1,0,0,-5]];perimeter=orthogonalPerimeter;outlineConnect=0;targetShapes=umlLifeline;portConstraint=eastwest;newEdgeStyle={&quot;curved&quot;:0,&quot;rounded&quot;:0};" parent="S-3L3nUKoJfVUGBxYp5F-18" vertex="1">
          <mxGeometry x="5" y="80" width="10" height="450" as="geometry" />
        </mxCell>
        <mxCell id="S-3L3nUKoJfVUGBxYp5F-20" value="loop" style="shape=umlFrame;whiteSpace=wrap;html=1;pointerEvents=0;" parent="1" vertex="1">
          <mxGeometry x="155" y="230" width="320" height="230" as="geometry" />
        </mxCell>
        <mxCell id="S-3L3nUKoJfVUGBxYp5F-21" value="Make New Item Receive" style="html=1;verticalAlign=bottom;startArrow=none;endArrow=block;startSize=8;edgeStyle=elbowEdgeStyle;elbow=vertical;curved=0;rounded=0;startFill=0;" parent="1" source="S-3L3nUKoJfVUGBxYp5F-19" edge="1">
          <mxGeometry x="0.0038" relative="1" as="geometry">
            <mxPoint x="205" y="208" as="sourcePoint" />
            <mxPoint x="420" y="208.1034482758621" as="targetPoint" />
            <mxPoint as="offset" />
          </mxGeometry>
        </mxCell>
        <mxCell id="S-3L3nUKoJfVUGBxYp5F-22" value="Enter Item" style="html=1;verticalAlign=bottom;startArrow=none;endArrow=block;startSize=8;edgeStyle=elbowEdgeStyle;elbow=vertical;curved=0;rounded=0;startFill=0;" parent="1" source="S-3L3nUKoJfVUGBxYp5F-19" edge="1">
          <mxGeometry relative="1" as="geometry">
            <mxPoint x="195" y="269" as="sourcePoint" />
            <mxPoint x="420" y="269" as="targetPoint" />
            <mxPoint as="offset" />
            <Array as="points">
              <mxPoint x="415" y="269" />
            </Array>
          </mxGeometry>
        </mxCell>
        <mxCell id="S-3L3nUKoJfVUGBxYp5F-23" value="Increase Total Item(s)" style="html=1;align=left;spacingLeft=2;endArrow=block;rounded=0;edgeStyle=orthogonalEdgeStyle;curved=0;rounded=0;" parent="1" edge="1">
          <mxGeometry x="0.0084" relative="1" as="geometry">
            <mxPoint x="430" y="400.05999999999995" as="sourcePoint" />
            <Array as="points">
              <mxPoint x="460" y="430.05999999999995" />
            </Array>
            <mxPoint as="offset" />
            <mxPoint x="435" y="430.05999999999995" as="targetPoint" />
          </mxGeometry>
        </mxCell>
      </root>
    </mxGraphModel>
  </diagram>
  <diagram id="ZInGY27YZ4vSt6Hi9rB8" name="Damage/Loss Process">
    <mxGraphModel dx="987" dy="649" grid="1" gridSize="10" guides="1" tooltips="1" connect="1" arrows="1" fold="1" page="1" pageScale="1" pageWidth="827" pageHeight="1169" math="0" shadow="0">
      <root>
        <mxCell id="0" />
        <mxCell id="1" parent="0" />
        <mxCell id="ehfZJJXoLVoXUpr5wKsd-1" value="POS System" style="shape=umlLifeline;perimeter=lifelinePerimeter;whiteSpace=wrap;html=1;container=0;dropTarget=0;collapsible=0;recursiveResize=0;outlineConnect=0;portConstraint=eastwest;newEdgeStyle={&quot;edgeStyle&quot;:&quot;elbowEdgeStyle&quot;,&quot;elbow&quot;:&quot;vertical&quot;,&quot;curved&quot;:0,&quot;rounded&quot;:0};" parent="1" vertex="1">
          <mxGeometry x="375" y="130" width="100" height="630" as="geometry" />
        </mxCell>
        <mxCell id="ehfZJJXoLVoXUpr5wKsd-2" value="" style="html=1;points=[];perimeter=orthogonalPerimeter;outlineConnect=0;targetShapes=umlLifeline;portConstraint=eastwest;newEdgeStyle={&quot;edgeStyle&quot;:&quot;elbowEdgeStyle&quot;,&quot;elbow&quot;:&quot;vertical&quot;,&quot;curved&quot;:0,&quot;rounded&quot;:0};" parent="ehfZJJXoLVoXUpr5wKsd-1" vertex="1">
          <mxGeometry x="45" y="70" width="10" height="520" as="geometry" />
        </mxCell>
        <mxCell id="ehfZJJXoLVoXUpr5wKsd-3" value="" style="html=1;points=[[0,0,0,0,5],[0,1,0,0,-5],[1,0,0,0,5],[1,1,0,0,-5]];perimeter=orthogonalPerimeter;outlineConnect=0;targetShapes=umlLifeline;portConstraint=eastwest;newEdgeStyle={&quot;curved&quot;:0,&quot;rounded&quot;:0};" parent="ehfZJJXoLVoXUpr5wKsd-1" vertex="1">
          <mxGeometry x="51" y="331" width="10" height="40" as="geometry" />
        </mxCell>
        <mxCell id="ehfZJJXoLVoXUpr5wKsd-4" value="Add Item" style="html=1;verticalAlign=bottom;endArrow=open;dashed=1;endSize=8;edgeStyle=elbowEdgeStyle;elbow=horizontal;curved=0;rounded=0;" parent="ehfZJJXoLVoXUpr5wKsd-1" edge="1">
          <mxGeometry x="0.0015" relative="1" as="geometry">
            <mxPoint x="-174" y="289" as="targetPoint" />
            <Array as="points">
              <mxPoint x="-70" y="289" />
            </Array>
            <mxPoint x="46" y="289" as="sourcePoint" />
            <mxPoint as="offset" />
          </mxGeometry>
        </mxCell>
        <mxCell id="ehfZJJXoLVoXUpr5wKsd-7" value="Database" style="shape=umlLifeline;perimeter=lifelinePerimeter;whiteSpace=wrap;html=1;container=0;dropTarget=0;collapsible=0;recursiveResize=0;outlineConnect=0;portConstraint=eastwest;newEdgeStyle={&quot;edgeStyle&quot;:&quot;elbowEdgeStyle&quot;,&quot;elbow&quot;:&quot;vertical&quot;,&quot;curved&quot;:0,&quot;rounded&quot;:0};" parent="1" vertex="1">
          <mxGeometry x="595" y="130" width="100" height="630" as="geometry" />
        </mxCell>
        <mxCell id="ehfZJJXoLVoXUpr5wKsd-8" value="" style="html=1;points=[];perimeter=orthogonalPerimeter;outlineConnect=0;targetShapes=umlLifeline;portConstraint=eastwest;newEdgeStyle={&quot;edgeStyle&quot;:&quot;elbowEdgeStyle&quot;,&quot;elbow&quot;:&quot;vertical&quot;,&quot;curved&quot;:0,&quot;rounded&quot;:0};" parent="ehfZJJXoLVoXUpr5wKsd-7" vertex="1">
          <mxGeometry x="45" y="170" width="10" height="40" as="geometry" />
        </mxCell>
        <mxCell id="ehfZJJXoLVoXUpr5wKsd-12" value="Get Item Info" style="html=1;verticalAlign=bottom;endArrow=block;edgeStyle=elbowEdgeStyle;elbow=horizontal;curved=0;rounded=0;" parent="1" source="ehfZJJXoLVoXUpr5wKsd-2" target="ehfZJJXoLVoXUpr5wKsd-8" edge="1">
          <mxGeometry relative="1" as="geometry">
            <mxPoint x="435" y="301" as="sourcePoint" />
            <Array as="points">
              <mxPoint x="516" y="300.5" />
            </Array>
            <mxPoint x="641" y="300.5" as="targetPoint" />
            <mxPoint as="offset" />
          </mxGeometry>
        </mxCell>
        <mxCell id="ehfZJJXoLVoXUpr5wKsd-13" value="Item Info" style="html=1;verticalAlign=bottom;endArrow=open;dashed=1;endSize=8;edgeStyle=elbowEdgeStyle;elbow=vertical;curved=0;rounded=0;" parent="1" edge="1">
          <mxGeometry relative="1" as="geometry">
            <mxPoint x="435" y="339.44" as="targetPoint" />
            <Array as="points">
              <mxPoint x="530" y="339.44" />
            </Array>
            <mxPoint x="645" y="339.44" as="sourcePoint" />
            <mxPoint as="offset" />
          </mxGeometry>
        </mxCell>
        <mxCell id="ehfZJJXoLVoXUpr5wKsd-14" value="" style="shape=umlLifeline;perimeter=lifelinePerimeter;whiteSpace=wrap;html=1;container=1;dropTarget=0;collapsible=0;recursiveResize=0;outlineConnect=0;portConstraint=eastwest;newEdgeStyle={&quot;curved&quot;:0,&quot;rounded&quot;:0};participant=umlActor;" parent="1" vertex="1">
          <mxGeometry x="185" y="120" width="20" height="640" as="geometry" />
        </mxCell>
        <mxCell id="ehfZJJXoLVoXUpr5wKsd-15" value="" style="html=1;points=[[0,0,0,0,5],[0,1,0,0,-5],[1,0,0,0,5],[1,1,0,0,-5]];perimeter=orthogonalPerimeter;outlineConnect=0;targetShapes=umlLifeline;portConstraint=eastwest;newEdgeStyle={&quot;curved&quot;:0,&quot;rounded&quot;:0};" parent="ehfZJJXoLVoXUpr5wKsd-14" vertex="1">
          <mxGeometry x="5" y="80" width="10" height="520" as="geometry" />
        </mxCell>
        <mxCell id="ehfZJJXoLVoXUpr5wKsd-16" value="loop" style="shape=umlFrame;whiteSpace=wrap;html=1;pointerEvents=0;" parent="1" vertex="1">
          <mxGeometry x="155" y="230" width="320" height="300" as="geometry" />
        </mxCell>
        <mxCell id="ehfZJJXoLVoXUpr5wKsd-17" value="Make New Damage/Loss" style="html=1;verticalAlign=bottom;startArrow=none;endArrow=block;startSize=8;edgeStyle=elbowEdgeStyle;elbow=vertical;curved=0;rounded=0;startFill=0;" parent="1" source="ehfZJJXoLVoXUpr5wKsd-15" edge="1">
          <mxGeometry x="0.0038" relative="1" as="geometry">
            <mxPoint x="205" y="208" as="sourcePoint" />
            <mxPoint x="420" y="208.1034482758621" as="targetPoint" />
            <mxPoint as="offset" />
          </mxGeometry>
        </mxCell>
        <mxCell id="ehfZJJXoLVoXUpr5wKsd-18" value="Enter Item" style="html=1;verticalAlign=bottom;startArrow=none;endArrow=block;startSize=8;edgeStyle=elbowEdgeStyle;elbow=vertical;curved=0;rounded=0;startFill=0;" parent="1" source="ehfZJJXoLVoXUpr5wKsd-15" edge="1">
          <mxGeometry relative="1" as="geometry">
            <mxPoint x="195" y="269" as="sourcePoint" />
            <mxPoint x="420" y="269" as="targetPoint" />
            <mxPoint as="offset" />
            <Array as="points">
              <mxPoint x="415" y="269" />
            </Array>
          </mxGeometry>
        </mxCell>
        <mxCell id="ehfZJJXoLVoXUpr5wKsd-19" value="Increase Total Item(s)" style="html=1;align=left;spacingLeft=2;endArrow=block;rounded=0;edgeStyle=orthogonalEdgeStyle;curved=0;rounded=0;" parent="1" edge="1">
          <mxGeometry x="0.0084" relative="1" as="geometry">
            <mxPoint x="430" y="449.05999999999995" as="sourcePoint" />
            <Array as="points">
              <mxPoint x="460" y="479.05999999999995" />
            </Array>
            <mxPoint as="offset" />
            <mxPoint x="435" y="479.05999999999995" as="targetPoint" />
          </mxGeometry>
        </mxCell>
        <mxCell id="ehfZJJXoLVoXUpr5wKsd-5" value="Submit Damage/Loss" style="html=1;verticalAlign=bottom;startArrow=none;endArrow=block;startSize=8;edgeStyle=elbowEdgeStyle;elbow=vertical;curved=0;rounded=0;startFill=0;" parent="1" edge="1">
          <mxGeometry relative="1" as="geometry">
            <mxPoint x="200.5" y="579" as="sourcePoint" />
            <mxPoint x="420.5" y="579" as="targetPoint" />
          </mxGeometry>
        </mxCell>
        <mxCell id="ehfZJJXoLVoXUpr5wKsd-6" value="Response Message" style="html=1;verticalAlign=bottom;endArrow=open;dashed=1;endSize=8;edgeStyle=elbowEdgeStyle;elbow=horizontal;curved=0;rounded=0;" parent="1" edge="1">
          <mxGeometry x="0.0015" relative="1" as="geometry">
            <mxPoint x="200.5" y="696" as="targetPoint" />
            <Array as="points">
              <mxPoint x="304.5" y="696" />
            </Array>
            <mxPoint x="420.5" y="696" as="sourcePoint" />
            <mxPoint as="offset" />
          </mxGeometry>
        </mxCell>
        <mxCell id="ehfZJJXoLVoXUpr5wKsd-9" value="" style="html=1;points=[];perimeter=orthogonalPerimeter;outlineConnect=0;targetShapes=umlLifeline;portConstraint=eastwest;newEdgeStyle={&quot;edgeStyle&quot;:&quot;elbowEdgeStyle&quot;,&quot;elbow&quot;:&quot;vertical&quot;,&quot;curved&quot;:0,&quot;rounded&quot;:0};" parent="1" vertex="1">
          <mxGeometry x="639.5" y="615" width="10" height="42" as="geometry" />
        </mxCell>
        <mxCell id="ehfZJJXoLVoXUpr5wKsd-10" value="Save Damage/Loss" style="html=1;verticalAlign=bottom;endArrow=block;edgeStyle=elbowEdgeStyle;elbow=horizontal;curved=0;rounded=0;" parent="1" target="ehfZJJXoLVoXUpr5wKsd-9" edge="1">
          <mxGeometry relative="1" as="geometry">
            <mxPoint x="429.5" y="616" as="sourcePoint" />
            <Array as="points">
              <mxPoint x="515.5" y="615.5" />
            </Array>
            <mxPoint x="640.5" y="615.5" as="targetPoint" />
            <mxPoint as="offset" />
          </mxGeometry>
        </mxCell>
        <mxCell id="ehfZJJXoLVoXUpr5wKsd-11" value="Response Message" style="html=1;verticalAlign=bottom;endArrow=open;dashed=1;endSize=8;edgeStyle=elbowEdgeStyle;elbow=vertical;curved=0;rounded=0;" parent="1" edge="1">
          <mxGeometry x="-0.0023" relative="1" as="geometry">
            <mxPoint x="429.5" y="656" as="targetPoint" />
            <Array as="points">
              <mxPoint x="524.5" y="656" />
            </Array>
            <mxPoint x="639.5" y="656.0000000000002" as="sourcePoint" />
            <mxPoint as="offset" />
          </mxGeometry>
        </mxCell>
        <mxCell id="JwxwOi_GSFb1AJiaCC3B-1" value="Enter Remark" style="html=1;verticalAlign=bottom;startArrow=none;endArrow=block;startSize=8;edgeStyle=elbowEdgeStyle;elbow=vertical;curved=0;rounded=0;startFill=0;" edge="1" parent="1">
          <mxGeometry relative="1" as="geometry">
            <mxPoint x="200" y="370" as="sourcePoint" />
            <mxPoint x="420" y="370" as="targetPoint" />
            <mxPoint as="offset" />
            <Array as="points" />
          </mxGeometry>
        </mxCell>
      </root>
    </mxGraphModel>
  </diagram>
</mxfile>
